<svg width="18" height="11" viewBox="0 0 18 11" fill="none" xmlns="http://www.w3.org/2000/svg">
<path fill-rule="evenodd" clip-rule="evenodd" d="M0.550659 10.2607H17.5507V9.01068H0.550659V10.2607ZM0.550659 1.51068H17.5507V0.260681H0.550659V1.51068ZM0.550659 5.88568H17.5507V4.63568H0.550659V5.88568Z" fill="#87CEEB"/>
<path d="M0.550659 10.2607H0.450659V10.3607H0.550659V10.2607ZM17.5507 10.2607V10.3607H17.6507V10.2607H17.5507ZM17.5507 9.01068H17.6507V8.91068H17.5507V9.01068ZM0.550659 9.01068V8.91068H0.450659V9.01068H0.550659ZM0.550659 1.51068H0.450659V1.61068H0.550659V1.51068ZM17.5507 1.51068V1.61068H17.6507V1.51068H17.5507ZM17.5507 0.260681H17.6507V0.160681H17.5507V0.260681ZM0.550659 0.260681V0.160681H0.450659V0.260681H0.550659ZM0.550659 5.88568H0.450659V5.98568H0.550659V5.88568ZM17.5507 5.88568V5.98568H17.6507V5.88568H17.5507ZM17.5507 4.63568H17.6507V4.53568H17.5507V4.63568ZM0.550659 4.63568V4.53568H0.450659V4.63568H0.550659ZM0.550659 10.3607H17.5507V10.1607H0.550659V10.3607ZM17.6507 10.2607V9.01068H17.4507V10.2607H17.6507ZM17.5507 8.91068H0.550659V9.11068H17.5507V8.91068ZM0.450659 9.01068V10.2607H0.650659V9.01068H0.450659ZM0.550659 1.61068H17.5507V1.41068H0.550659V1.61068ZM17.6507 1.51068V0.260681H17.4507V1.51068H17.6507ZM17.5507 0.160681H0.550659V0.360681H17.5507V0.160681ZM0.450659 0.260681V1.51068H0.650659V0.260681H0.450659ZM0.550659 5.98568H17.5507V5.78568H0.550659V5.98568ZM17.6507 5.88568V4.63568H17.4507V5.88568H17.6507ZM17.5507 4.53568H0.550659V4.73568H17.5507V4.53568ZM0.450659 4.63568V5.88568H0.650659V4.63568H0.450659Z" fill="#87CEEB"/>
</svg>
