<svg width="20" height="20" viewBox="0 0 20 20" fill="none" xmlns="http://www.w3.org/2000/svg">
<path fill-rule="evenodd" clip-rule="evenodd" d="M5.86965 0.122727C4.24177 0.196177 2.8308 0.5942 1.69149 1.72871C0.548187 2.86918 0.155147 4.28558 0.0815141 5.89653C0.0357424 6.90201 -0.231923 14.4982 0.544207 16.4903C1.0676 17.8342 2.09846 18.8675 3.45469 19.3926C4.08754 19.6387 4.80994 19.8055 5.86965 19.8541C14.7305 20.2551 18.0151 20.0367 19.4002 16.4903C19.646 15.859 19.8151 15.1374 19.8619 14.0803C20.2669 5.19677 19.7962 3.27117 18.2519 1.72871C17.027 0.506853 15.5862 -0.324924 5.86965 0.122727ZM5.95124 18.0675C4.98108 18.0238 4.45471 17.862 4.10346 17.726C3.21986 17.3826 2.55617 16.7215 2.21488 15.8431C1.62382 14.3294 1.81985 7.14023 1.87258 5.97693C1.92432 4.83745 2.15517 3.79624 2.95916 2.99226C3.9542 1.99968 5.23979 1.51332 13.9931 1.90837C15.1354 1.95998 16.1792 2.19026 16.9852 2.99226C17.9803 3.98483 18.4738 5.28014 18.0718 13.9999C18.028 14.9677 17.8658 15.4927 17.7295 15.8431C16.829 18.1509 14.7573 18.4715 5.95124 18.0675ZM14.0897 4.68956C14.0897 5.34665 14.624 5.88065 15.2837 5.88065C15.9434 5.88065 16.4788 5.34665 16.4788 4.68956C16.4788 4.03248 15.9434 3.49847 15.2837 3.49847C14.624 3.49847 14.0897 4.03248 14.0897 4.68956ZM4.86267 9.98792C4.86267 12.8029 7.15027 15.0848 9.97219 15.0848C12.7941 15.0848 15.0817 12.8029 15.0817 9.98792C15.0817 7.17298 12.7941 4.89205 9.97219 4.89205C7.15027 4.89205 4.86267 7.17298 4.86267 9.98792ZM6.65573 9.98792C6.65573 8.16159 8.14033 6.67967 9.97219 6.67967C11.8041 6.67967 13.2887 8.16159 13.2887 9.98792C13.2887 11.8153 11.8041 13.2972 9.97219 13.2972C8.14033 13.2972 6.65573 11.8153 6.65573 9.98792Z" fill="black"/>
</svg>
