<svg width="11" height="12" viewBox="0 0 11 12" fill="none" xmlns="http://www.w3.org/2000/svg">
<path d="M10.7902 9.88259L8.71621 7.80896C8.6226 7.71536 8.4957 7.66337 8.36257 7.66337H8.02349C8.59763 6.92917 8.93879 6.00571 8.93879 5.00113C8.93879 2.61135 7.0021 0.674988 4.61191 0.674988C2.22173 0.674988 0.285034 2.61135 0.285034 5.00113C0.285034 7.3909 2.22173 9.32727 4.61191 9.32727C5.61666 9.32727 6.54029 8.98617 7.27461 8.41212V8.75114C7.27461 8.88425 7.32661 9.01113 7.42022 9.10472L9.49421 11.1784C9.68975 11.3739 10.0059 11.3739 10.1994 11.1784L10.7881 10.5898C10.9837 10.3942 10.9837 10.0781 10.7902 9.88259ZM4.61191 7.66337C3.14119 7.66337 1.94922 6.47368 1.94922 5.00113C1.94922 3.53066 3.13911 2.33889 4.61191 2.33889C6.08264 2.33889 7.27461 3.52858 7.27461 5.00113C7.27461 6.4716 6.08472 7.66337 4.61191 7.66337Z" fill="#87CEFA"/>
<path d="M7.94423 7.60139L7.81708 7.76399H8.02349H8.36257C8.46939 7.76399 8.57058 7.80564 8.64506 7.88011L10.7187 9.95337C10.7187 9.95342 10.7188 9.95348 10.7188 9.95354C10.8733 10.1098 10.8732 10.3624 10.717 10.5186L10.1283 11.1072L10.1279 11.1076C9.97402 11.2631 9.72182 11.2636 9.56535 11.1072L7.49137 9.03357C7.41689 8.9591 7.37523 8.85793 7.37523 8.75114V8.41212V8.20575L7.21264 8.33285C6.49543 8.89352 5.59347 9.22665 4.61191 9.22665C2.27728 9.22665 0.385652 7.33532 0.385652 5.00113C0.385652 2.66694 2.27728 0.775606 4.61191 0.775606C6.94654 0.775606 8.83817 2.66694 8.83817 5.00113C8.83817 5.98251 8.50499 6.8843 7.94423 7.60139ZM1.8486 5.00113C1.8486 6.52932 3.08569 7.76399 4.61191 7.76399C6.14032 7.76399 7.37523 6.52713 7.37523 5.00113C7.37523 3.47294 6.13814 2.23827 4.61191 2.23827C3.0835 2.23827 1.8486 3.47512 1.8486 5.00113Z" stroke="#0F181B" stroke-opacity="0.3" stroke-width="0.201236"/>
</svg>
