<svg width="23" height="26" viewBox="0 0 23 26" fill="none" xmlns="http://www.w3.org/2000/svg">
<g clip-path="url(#clip0)">
<path d="M6.85996 19.25V19.35H6.95996H21.3975C21.7087 19.35 21.985 19.6444 21.985 20.0312V21.5938C21.985 21.9806 21.7087 22.275 21.3975 22.275H6.95996H6.85996V22.375V23.1562C6.85996 23.5431 6.58373 23.8375 6.27246 23.8375H4.89746C4.58619 23.8375 4.30996 23.5431 4.30996 23.1562V22.375V22.275H4.20996H0.772461C0.461193 22.275 0.184961 21.9806 0.184961 21.5938V20.0312C0.184961 19.6444 0.461193 19.35 0.772461 19.35H4.20996H4.30996V19.25V18.4688C4.30996 18.0819 4.58619 17.7875 4.89746 17.7875H6.27246C6.58373 17.7875 6.85996 18.0819 6.85996 18.4688V19.25ZM17.86 11.4375V11.5375H17.96H21.3975C21.7087 11.5375 21.985 11.8319 21.985 12.2188V13.7812C21.985 14.1681 21.7087 14.4625 21.3975 14.4625H17.96H17.86V14.5625V15.3438C17.86 15.7306 17.5837 16.025 17.2725 16.025H15.8975C15.5862 16.025 15.31 15.7306 15.31 15.3438V14.5625V14.4625H15.21H0.772461C0.461193 14.4625 0.184961 14.1681 0.184961 13.7812V12.2188C0.184961 11.8319 0.461193 11.5375 0.772461 11.5375H15.21H15.31V11.4375V10.6562C15.31 10.2694 15.5862 9.975 15.8975 9.975H17.2725C17.5837 9.975 17.86 10.2694 17.86 10.6562V11.4375ZM12.36 3.625V3.725H12.46H21.3975C21.7087 3.725 21.985 4.0194 21.985 4.40625V5.96875C21.985 6.3556 21.7087 6.65 21.3975 6.65H12.46H12.36V6.75V7.53125C12.36 7.9181 12.0837 8.2125 11.7725 8.2125H10.3975C10.0862 8.2125 9.80996 7.9181 9.80996 7.53125V6.75V6.65H9.70996H0.772461C0.461193 6.65 0.184961 6.3556 0.184961 5.96875V4.40625C0.184961 4.0194 0.461193 3.725 0.772461 3.725H9.70996H9.80996V3.625V2.84375C9.80996 2.4569 10.0862 2.1625 10.3975 2.1625H11.7725C12.0837 2.1625 12.36 2.4569 12.36 2.84375V3.625Z" fill="#91AFEA" stroke="#B0E0E6" stroke-width="0.2"/>
</g>
<defs>
<clipPath id="clip0">
<rect width="22" height="25" fill="white" transform="translate(0.0849609 0.5)"/>
</clipPath>
</defs>
</svg>
