<svg width="19" height="18" viewBox="0 0 19 18" fill="none" xmlns="http://www.w3.org/2000/svg">
<path d="M9.5 1L11.4084 6.87336L17.584 6.87336L12.5878 10.5033L14.4962 16.3766L9.5 12.7467L4.50383 16.3766L6.41219 10.5033L1.41602 6.87336L7.59163 6.87336L9.5 1Z" fill="#FF8484"/>
<path d="M9.59511 0.969098L9.5 0.676393L9.40489 0.969098L7.51898 6.77336L1.41602 6.77336H1.10825L1.35724 6.95426L6.29464 10.5415L4.40872 16.3457L4.31361 16.6384L4.5626 16.4575L9.5 12.8703L14.4374 16.4575L14.6864 16.6384L14.5913 16.3457L12.7054 10.5415L17.6428 6.95426L17.8917 6.77336H17.584L11.481 6.77336L9.59511 0.969098Z" stroke="#0F181B" stroke-opacity="0.3" stroke-width="0.2"/>
</svg>
