<svg width="20" height="16" viewBox="0 0 20 16" fill="none" xmlns="http://www.w3.org/2000/svg">
<path fill-rule="evenodd" clip-rule="evenodd" d="M6.29 16C13.837 16 17.965 9.84365 17.965 4.50546C17.965 4.33021 17.965 4.15595 17.953 3.98267C18.756 3.41163 19.449 2.70276 20 1.8915C19.252 2.21837 18.457 2.433 17.644 2.52751C18.5 2.02244 19.141 1.2289 19.448 0.292602C18.642 0.763214 17.761 1.095 16.842 1.27321C15.288 -0.353258 12.689 -0.432021 11.036 1.09796C9.971 2.08447 9.518 3.55538 9.849 4.95835C6.55 4.79492 3.476 3.261 1.392 0.737616C0.303 2.58363 0.86 4.94457 2.663 6.12996C2.01 6.11125 1.371 5.93797 0.8 5.62489V5.67608C0.801 7.5989 2.178 9.2549 4.092 9.63591C3.488 9.79836 2.854 9.82199 2.24 9.70483C2.777 11.351 4.318 12.4783 6.073 12.5108C4.62 13.6351 2.825 14.2455 0.977 14.2436C0.651 14.2426 0.325 14.2239 0 14.1855C1.877 15.3709 4.06 16 6.29 15.997" fill="black"/>
</svg>
